<svg data-v-423bf9ae="" xmlns="http://www.w3.org/2000/svg" viewBox="0 0 595 90" class="iconLeft"><!----><!----><!----><g data-v-423bf9ae="" id="82479cb3-11ed-493f-840c-e083f6fd0a4f" fill="white" transform="matrix(6.116207094869291,0,0,6.116207094869291,110.26572804602566,-30.749230616791166)"><path d="M2.37 13.19L2.37 16.42L6.41 16.42L6.41 17.18L1.46 17.18L1.46 8.43L6.33 8.43L6.23 9.18L2.37 9.18L2.37 12.42L5.87 12.42L5.87 13.19L2.37 13.19ZM10.88 13.80L9.55 13.80L9.55 17.18L8.64 17.18L8.64 8.08L9.55 7.87L9.55 13.06L10.88 13.06L12.53 10.18L13.48 10.18L11.63 13.41L13.55 17.18L12.63 17.18L10.88 13.80ZM17.30 16.52Q17.86 16.52 18.40 16.45Q18.93 16.38 19.71 16.18L19.71 16.18L19.84 16.90Q19.39 17.08 18.63 17.19Q17.88 17.29 17.07 17.29L17.07 17.29Q16.03 17.29 15.54 17.00Q15.05 16.72 14.88 15.97Q14.70 15.23 14.70 13.68L14.70 13.68Q14.70 12.21 14.92 11.45Q15.15 10.70 15.71 10.38Q16.28 10.07 17.39 10.07L17.39 10.07Q18.47 10.07 19.02 10.23Q19.57 10.40 19.80 10.82Q20.02 11.24 20.02 12.07L20.02 12.07Q20.02 13.15 19.75 13.57Q19.49 14 18.64 14.13Q17.79 14.27 15.64 14.27L15.64 14.27L15.64 16.32Q16.28 16.52 17.30 16.52L17.30 16.52ZM16.86 10.91Q16.14 10.91 15.89 11.10Q15.64 11.28 15.64 11.82L15.64 11.82L15.64 13.52L17.95 13.52Q18.68 13.52 18.94 13.34Q19.19 13.16 19.19 12.63L19.19 12.63L19.19 10.91L16.86 10.91ZM22.61 17.18L22.61 10.18L22.99 10.18L23.25 10.88Q23.76 10.46 24.35 10.26Q24.95 10.07 25.79 10.07L25.79 10.07Q27.73 10.07 27.73 11.10L27.73 11.10L27.73 17.18L26.82 17.18L26.82 10.81L24.93 10.81Q24.36 10.81 24.07 10.89Q23.77 10.98 23.65 11.17Q23.52 11.37 23.52 11.76L23.52 11.76L23.52 17.18L22.61 17.18ZM32.70 16.52Q33.26 16.52 33.80 16.45Q34.33 16.38 35.11 16.18L35.11 16.18L35.24 16.90Q34.79 17.08 34.03 17.19Q33.28 17.29 32.47 17.29L32.47 17.29Q31.43 17.29 30.94 17.00Q30.45 16.72 30.28 15.97Q30.10 15.23 30.10 13.68L30.10 13.68Q30.10 12.21 30.32 11.45Q30.55 10.70 31.12 10.38Q31.68 10.07 32.79 10.07L32.79 10.07Q33.87 10.07 34.42 10.23Q34.97 10.40 35.20 10.82Q35.42 11.24 35.42 12.07L35.42 12.07Q35.42 13.15 35.15 13.57Q34.89 14 34.04 14.13Q33.19 14.27 31.04 14.27L31.04 14.27L31.04 16.32Q31.68 16.52 32.70 16.52L32.70 16.52ZM32.26 10.91Q31.54 10.91 31.29 11.10Q31.04 11.28 31.04 11.82L31.04 11.82L31.04 13.52L33.35 13.52Q34.08 13.52 34.34 13.34Q34.59 13.16 34.59 12.63L34.59 12.63L34.59 10.91L32.26 10.91ZM42.67 13.19L42.67 16.42L46.72 16.42L46.72 17.18L41.76 17.18L41.76 8.43L46.63 8.43L46.54 9.18L42.67 9.18L42.67 12.42L46.17 12.42L46.17 13.19L42.67 13.19ZM52.18 10.92L52.11 10.84L48.47 10.84L48.38 10.18L53.28 10.18L53.28 10.68L49.18 16.44L49.22 16.52L53.16 16.52L53.16 17.18L48.08 17.18L48.08 16.67L52.18 10.92ZM57.41 16.52Q57.97 16.52 58.51 16.45Q59.04 16.38 59.82 16.18L59.82 16.18L59.95 16.90Q59.50 17.08 58.74 17.19Q57.99 17.29 57.18 17.29L57.18 17.29Q56.14 17.29 55.65 17.00Q55.16 16.72 54.99 15.97Q54.81 15.23 54.81 13.68L54.81 13.68Q54.81 12.21 55.03 11.45Q55.26 10.70 55.83 10.38Q56.39 10.07 57.50 10.07L57.50 10.07Q58.58 10.07 59.13 10.23Q59.68 10.40 59.91 10.82Q60.13 11.24 60.13 12.07L60.13 12.07Q60.13 13.15 59.86 13.57Q59.60 14 58.75 14.13Q57.90 14.27 55.75 14.27L55.75 14.27L55.75 16.32Q56.39 16.52 57.41 16.52L57.41 16.52ZM56.97 10.91Q56.25 10.91 56.00 11.10Q55.75 11.28 55.75 11.82L55.75 11.82L55.75 13.52L58.06 13.52Q58.79 13.52 59.05 13.34Q59.30 13.16 59.30 12.63L59.30 12.63L59.30 10.91L56.97 10.91ZM65.04 17.29Q63.80 17.29 63.22 17.02Q62.65 16.74 62.45 16.01Q62.24 15.27 62.24 13.68L62.24 13.68Q62.24 12.08 62.45 11.35Q62.65 10.61 63.22 10.34Q63.80 10.07 65.04 10.07L65.04 10.07Q66.30 10.07 66.88 10.33Q67.45 10.60 67.65 11.33Q67.84 12.07 67.84 13.68L67.84 13.68Q67.84 15.27 67.64 16.01Q67.44 16.74 66.86 17.02Q66.29 17.29 65.04 17.29L65.04 17.29ZM63.17 16.48L66.23 16.48Q66.67 16.48 66.81 16.41Q66.95 16.35 66.95 16.14L66.95 16.14L66.95 10.88L63.88 10.88Q63.45 10.88 63.31 10.94Q63.17 11.00 63.17 11.21L63.17 11.21L63.17 16.48ZM75.68 13.68Q75.68 15.29 75.50 16.02Q75.32 16.76 74.81 17.02Q74.30 17.29 73.16 17.29L73.16 17.29L73.15 17.29Q72.42 17.29 72.02 17.23L72.02 17.23Q71.26 17.16 70.29 16.90L70.29 16.90L70.29 7.80L71.20 7.64L71.20 10.36Q71.50 10.14 72.00 10.05Q72.49 9.97 73.33 9.97L73.33 9.97Q74.37 9.97 74.85 10.25Q75.33 10.53 75.51 11.29Q75.68 12.05 75.68 13.68L75.68 13.68ZM74.76 16.24L74.76 10.78L71.88 10.78Q71.47 10.78 71.34 10.84Q71.20 10.91 71.20 11.12L71.20 11.12L71.20 16.48L74.07 16.48Q74.47 16.48 74.61 16.43Q74.76 16.38 74.76 16.24L74.76 16.24ZM77.97 17.18L77.97 17.18ZM78.13 10.19L79.04 10.02L79.04 17.18L78.13 17.18L78.13 10.19ZM78.62 8.74Q78.23 8.74 78.10 8.61Q77.97 8.48 77.97 8.12L77.97 8.12Q77.97 7.74 78.10 7.61Q78.23 7.48 78.62 7.48L78.62 7.48Q78.99 7.48 79.11 7.61Q79.24 7.74 79.24 8.12L79.24 8.12Q79.24 8.48 79.12 8.61Q79.00 8.74 78.62 8.74L78.62 8.74Z"></path></g><!----><g data-v-423bf9ae="" id="caf2733e-9549-4b5d-918f-1406caefe57e" transform="matrix(1.5325670896298305,0,0,1.5325670896298305,-27.330365644507538,-32.649905085652534)" stroke="none" fill="white"><path d="M82.7 50.6L63.6 31.3c-.3-.3-.9-.3-1.2 0-.3.3-.3.9 0 1.2L81 51.2 62.3 70c-.3.3-.3.9 0 1.2.2.2.4.3.6.3.2 0 .5-.1.6-.3l19.2-19.3c.4-.4.4-.9 0-1.3zM38.9 31.3c-.3-.3-.9-.3-1.2 0L18.5 50.6c-.3.3-.3.9 0 1.2l19.2 19.3c.2.2.4.3.6.3.2 0 .4-.1.6-.3.3-.3.3-.9 0-1.2L20.4 51.2 39 32.5c.3-.3.3-.9-.1-1.2zM59.8 21.9c-.5-.1-1 .1-1.1.6l-17.9 57c-.1.5.1 1 .6 1.1h.3c.4 0 .7-.2.8-.6l17.9-57c.1-.5-.1-1-.6-1.1z"></path></g><!----></svg>